Genre:Crime | Mystery
Language: English
IMDB:http://www.imdb.com/title/tt1493246/
Source:DVD

General
Complete name :The.Front.2010.DVDRip.XviD.Ac3.Feel-Free
Format : AVI
Format/Info : Audio Video Interleave
File size : 1.03 GiB
Duration : 1h 30mn
Overall bit rate : 1 626 Kbps
Video #0
Codec ID : XVID
Codec ID/Hint : XviD
Duration : 1h 30mn
Bit rate : 1 297 Kbps
Width : 576 pixels
Height : 320 pixels
Display aspect ratio : 16:9
Frame rate : 25.000 fps
Resolution : 24 bits
Colorimetry : 4:2:0
Scan type : Progressive
Bits/(Pixel*Frame) : 0.281
Stream size : 842 MiB (80%)
Writing library : XviD 1.2.1 (UTC 2008-12-04)
Audio #1
ID : 1
Format : AC-3
Format/Info : Audio Coding 3
Codec ID : 2000
Duration : 1h 30mn
Bit rate mode : Constant
Bit rate : 320 Kbps
Channel(s) : 6 channels
Channel positions : Front: L C R, Surround: L R, LFE
Sampling rate : 48.0 KHz
Stream size : 208 MiB (20%)
Alignment : Split accross interleaves
Interleave, duration : 40 ms (1.00 video frame)
Interleave, preload duration : 500 ms

Plot
A detective in a Boston suburb is assigned by his female district attorney to reopen an old murder case, which throws his life into grave peril.